<svg xmlns="http://www.w3.org/2000/svg" viewBox="0 0 1318.03 242"><title>wall-of-fame-logo</title><g id="Layer_2" data-name="Layer 2"><g id="outline-wall-of-fame"><g id="logo"><path d="M242,124c-.24,3.4-.32,6.82-.74,10.2-4.41,35.85-21.13,64.58-50.49,85.61-21.92,15.72-46.67,23-73.62,22.12-31.17-1.07-58-12.67-80.57-34.24a1.27,1.27,0,0,1,0-1.21Q78.74,164.25,121,122.11a3.79,3.79,0,0,1,2.42-1Q182.7,121,242,121.07Z" style="fill:#fff"/><path d="M124,0c3.32.25,6.65.4,10,.76A119.94,119.94,0,0,1,187.51,20l.32.26L177.5,30.54c-2.25,2.24-4.48,4.5-6.75,6.71a1.06,1.06,0,0,1-1,.09,96.74,96.74,0,0,0-53.09-13.06C74.28,26,37.31,56,27.14,97.21c-6.29,25.52-2.79,49.76,10.17,72.64a.89.89,0,0,1,0,.83q-8.44,8.5-16.94,17a1.75,1.75,0,0,1-.25.2c-.53-.82-1.07-1.62-1.58-2.44C4.54,162.81-1.63,138.25.37,111.75A120.75,120.75,0,0,1,100.12,1.92C105.64,1,111.28.7,116.86.12L118,0Z" style="fill:#fff"/><path d="M185.29,73a21.77,21.77,0,1,1,6.39,15.45A21.76,21.76,0,0,1,185.29,73Z" style="fill:#fff"/></g><g id="typelogo"><path d="M321.49,12a3.05,3.05,0,0,0,.54.08,45.57,45.57,0,0,1,29.78,12.77c.2.19.4.39.56.53l-6.45,6.46L345,31a36.88,36.88,0,0,0-13.57-8,37.67,37.67,0,0,0-6.71-1.52,38.52,38.52,0,0,0-7.2-.23,34.43,34.43,0,0,0-7.66,1.32,37.28,37.28,0,0,0-6.2,2.39,35,35,0,0,0-7.56,5c-.89.78-1.76,1.57-2.59,2.41a35.52,35.52,0,0,0-4.41,5.51,36.87,36.87,0,0,0-3.15,6A35.16,35.16,0,0,0,283.61,52a33.3,33.3,0,0,0-.4,3.6c-.09,1.44-.11,2.88-.06,4.31a35.35,35.35,0,0,0,1.15,7.37A36.83,36.83,0,0,0,317,94.72a41.23,41.23,0,0,0,5.33,0,35.34,35.34,0,0,0,8.46-1.55A36,36,0,0,0,336.29,91a37,37,0,0,0,14.38-12.71,36.21,36.21,0,0,0,4.6-9.86c.09-.31.19-.64.3-1H310.73L320.09,58h45.82v.65a46,46,0,0,1-35.86,44.17,46.24,46.24,0,0,1-7.77,1.06,41.07,41.07,0,0,1-6.56-.13A46,46,0,0,1,275.1,68,42.11,42.11,0,0,1,274,59.74a46,46,0,0,1,35.61-46.55,46.48,46.48,0,0,1,7.13-1.07c.35,0,.7,0,1.05,0a5,5,0,0,0,.54-.08Z" style="fill:#6b4ca5"/><path d="M604.49,104h-9.16V67.44H567.71V103.9c-.36.11-8.52.14-9.15,0V49h9.13v8.9c.39.11,26.74.15,27.62,0V30.71a1.74,1.74,0,0,1,.39-.05h8.55l.23,0Z" style="fill:#6b4ca5"/><path d="M512.48,67.38H475.89L466.53,58h35.39A27.47,27.47,0,0,0,496,48.28,27.17,27.17,0,0,0,480.49,40a27.64,27.64,0,0,0-22.2,48.61,27,27,0,0,0,18.84,6.26A27.25,27.25,0,0,0,495.25,87l6.35,6.35c-9.06,9.53-26.28,14.73-42.21,6.74a36.67,36.67,0,1,1,53.09-32.68Z" style="fill:#6b4ca5"/><path d="M402.82,85.41l31.6-54.72h10.47l0,0s0,0,0,0a.89.89,0,0,1-.08.17l-42.15,73h-9.13V30.77l0-.05,0,0a.57.57,0,0,1,.18,0h8.65l.22,0V85.39Z" style="fill:#6b4ca5"/><path d="M530.93,104h-9.18V39.61c-.62,0-1.21,0-1.8,0h-9.06l-5.2-8.9h62v8.9H530.92Z" style="fill:#6b4ca5"/><path d="M384.28,104h-9.11V49h9.07l0,0s0,0,0,0q0,27.32,0,54.62A1.38,1.38,0,0,1,384.28,104Z" style="fill:#6b4ca5"/><path d="M379.74,30.66A4.54,4.54,0,1,1,376.48,32,4.55,4.55,0,0,1,379.74,30.66Z" style="fill:#6b4ca5"/></g><path d="M317.32,120.72h25.86l9,31.64,9.1-31.64h25.85l-16.9,49,7.37,21.38,22.1-70.35h30.62L390.13,223.28H366.72l-14.58-36.69-14.45,36.69h-23.4L274.14,120.72h30.47l22.25,70.35,7.08-21.38Z" style="fill:#fff"/><path d="M455.41,120.72h25.72l35.53,102.56h-28.6l-6.21-20.08h-27.3l-6.07,20.08H419.74Zm22,63.7-9.1-31.78-9.53,31.78Z" style="fill:#fff"/><path d="M525.18,223.28V120.72h28.17v78h46.51v24.56Z" style="fill:#fff"/><path d="M609.68,223.28V120.72h28.17v78h46.51v24.56Z" style="fill:#fff"/><path d="M768.42,224A41.92,41.92,0,0,1,749,219.52a50.5,50.5,0,0,1-15.09-11.7,52.17,52.17,0,0,1-9.82-16.61A55.07,55.07,0,0,1,720.61,172a53.39,53.39,0,0,1,3.68-19.64,55.19,55.19,0,0,1,10.11-16.62,48.72,48.72,0,0,1,15.17-11.48A42.46,42.46,0,0,1,768.42,120a41.63,41.63,0,0,1,19.36,4.55,49.45,49.45,0,0,1,15.09,11.92,55,55,0,0,1,9.75,16.68,54.33,54.33,0,0,1-10.33,55.18,49.43,49.43,0,0,1-15.09,11.41A42,42,0,0,1,768.42,224ZM723.5,172a51.26,51.26,0,0,0,3.39,18.42,52.46,52.46,0,0,0,9.32,15.74,44.3,44.3,0,0,0,14.16,10.91,40.41,40.41,0,0,0,18,4,39.43,39.43,0,0,0,18.27-4.26,45.44,45.44,0,0,0,14.16-11.19,52.34,52.34,0,0,0,9.1-15.75,51.75,51.75,0,0,0-9.61-52.07,46.4,46.4,0,0,0-14.22-10.91,41.05,41.05,0,0,0-36,.22,46.3,46.3,0,0,0-14.23,11.19A52.64,52.64,0,0,0,723.5,172Z" style="fill:#fff"/><path d="M837.32,223.28V120.72h66v2.89H840.21v45.65h53.88v2.88H840.21v51.14Z" style="fill:#fff"/><path d="M968.47,120.72h65l-3,14.3H981.76l-6.5,30.62H1016l-2.88,13.44H972.37L963,223.28H946.66Z" style="fill:#fff"/><path d="M1066.84,120.72h14.3l16.47,102.56h-17l-4-27.88h-36.84l-15.74,27.88h-17.05Zm9.1,62.69-5.78-44-25.13,44Z" style="fill:#fff"/><path d="M1131.84,120.72h17.33l18.2,62.69,44.92-62.69h17.19l-21.81,102.56h-16.32l15.74-73.81-39.86,55.9h-9l-16.18-55.9-15.74,73.81H1110Z" style="fill:#fff"/><path d="M1252.3,120.72H1318l-3,14.3h-49.4l-6.21,29.18h42.76l-2.75,13.43h-42.9L1249.85,209h50.7l-3,14.3h-67Z" style="fill:#fff"/></g></g></svg>