<svg xmlns="http://www.w3.org/2000/svg" viewBox="0 0 1498.7 242"><title>wall-of-fame-logo</title><g id="Layer_2" data-name="Layer 2"><g id="outline-wall-of-fame"><g id="logo"><path d="M242,124c-.24,3.4-.32,6.82-.74,10.2-4.41,35.85-21.13,64.58-50.49,85.61-21.92,15.72-46.67,23-73.62,22.12-31.17-1.07-58-12.67-80.57-34.24a1.27,1.27,0,0,1,0-1.21Q78.74,164.25,121,122.11a3.79,3.79,0,0,1,2.42-1Q182.7,121,242,121.07Z" style="fill:#fff"/><path d="M124,0c3.32.25,6.65.4,10,.76A119.94,119.94,0,0,1,187.51,20l.32.26L177.5,30.54c-2.25,2.24-4.48,4.5-6.75,6.71a1.06,1.06,0,0,1-1,.09,96.74,96.74,0,0,0-53.09-13.06C74.28,26,37.31,56,27.14,97.21c-6.29,25.52-2.79,49.76,10.17,72.64a.89.89,0,0,1,0,.83q-8.44,8.5-16.94,17a1.75,1.75,0,0,1-.25.2c-.53-.82-1.07-1.62-1.58-2.44C4.54,162.81-1.63,138.25.37,111.75A120.75,120.75,0,0,1,100.12,1.92C105.64,1,111.28.7,116.86.12L118,0Z" style="fill:#fff"/><path d="M185.29,73a21.77,21.77,0,1,1,6.39,15.45A21.76,21.76,0,0,1,185.29,73Z" style="fill:#fff"/></g><g id="typelogo"><path d="M305.46,43.07l.35,0a30.15,30.15,0,0,1,19.73,8.46l.37.35-4.27,4.28c-.17-.17-.4-.37-.62-.57a24.45,24.45,0,0,0-9-5.3,24.82,24.82,0,0,0-4.44-1,25.35,25.35,0,0,0-4.77-.15,22.9,22.9,0,0,0-5.07.87,24.09,24.09,0,0,0-4.11,1.59,23.1,23.1,0,0,0-5,3.3c-.58.52-1.16,1-1.71,1.6A22.92,22.92,0,0,0,284,60.2a24.18,24.18,0,0,0-3.64,9.36c-.12.79-.21,1.58-.26,2.38-.06,1-.07,1.91,0,2.86a23.72,23.72,0,0,0,.76,4.88A24.4,24.4,0,0,0,302.5,97.85a26,26,0,0,0,3.53,0,24.28,24.28,0,0,0,9.23-2.48A24.5,24.5,0,0,0,324.79,87a23.85,23.85,0,0,0,3-6.53c.07-.21.13-.42.2-.68h-29.7l6.2-6.22h30.35V74a30.48,30.48,0,0,1-23.75,29.26,31,31,0,0,1-5.15.7,26.34,26.34,0,0,1-4.35-.09,30.45,30.45,0,0,1-26.9-23.68,27.43,27.43,0,0,1-.71-5.49,30.49,30.49,0,0,1,28.31-31.54c.23,0,.47,0,.7,0l.36-.06Z" style="fill:#fff"/><path d="M492.92,104h-6.07V79.78h-18.3v24.15c-.24.07-5.64.1-6.06,0V67.58h6.05v5.9c.25.07,17.71.09,18.3,0V55.45a1.07,1.07,0,0,1,.25,0h5.82Z" style="fill:#fff"/><path d="M432,79.74H407.73l-6.2-6.2H425A18.32,18.32,0,0,0,410.78,61.6a18.31,18.31,0,0,0-14.7,32.2A17.87,17.87,0,0,0,408.55,98a18.11,18.11,0,0,0,12-5.23l4.2,4.2A24.27,24.27,0,1,1,432,79.74Z" style="fill:#fff"/><path d="M359.33,91.69l20.93-36.25h6.94s0,0,0,0v0a1.17,1.17,0,0,0-.05.11L359.24,104h-6V55.49l0,0h0l.12,0h5.73l.15,0V91.67Z" style="fill:#fff"/><path d="M444.19,104h-6.08V61.35c-.41,0-.8,0-1.2,0h-6l-3.45-5.9h41.06v5.9H444.18Z" style="fill:#fff"/><path d="M347.05,104h-6V67.58h6l0,0s0,0,0,0q0,18.09,0,36.18A1.28,1.28,0,0,1,347.05,104Z" style="fill:#fff"/><path d="M344,55.42a3,3,0,1,1-2.16.88A3,3,0,0,1,344,55.42Z" style="fill:#fff"/></g><path d="M324.8,120.85h30.33L365.64,158l10.67-37.11h30.33l-19.82,57.44,8.64,25.08,25.92-82.52h35.93L410.2,241.15H382.75l-17.11-43-16.95,43H321.24l-47.1-120.3h35.75L336,203.37l8.31-25.08Z" style="fill:#fff"/><path d="M486.79,120.85H517l41.68,120.3H525.08L517.8,217.6h-32l-7.11,23.55H444.94Zm25.75,74.72-10.67-37.28-11.18,37.28Z" style="fill:#fff"/><path d="M568.63,241.15V120.85h33v91.5h54.56v28.8Z" style="fill:#fff"/><path d="M667.75,241.15V120.85h33v91.5h54.57v28.8Z" style="fill:#fff"/><path d="M854,242a49.24,49.24,0,0,1-22.79-5.25A59.37,59.37,0,0,1,813.47,223,61.26,61.26,0,0,1,802,203.54,64.67,64.67,0,0,1,797.88,181a62.32,62.32,0,0,1,4.33-23,64.28,64.28,0,0,1,11.86-19.49A56.85,56.85,0,0,1,831.86,125,49.78,49.78,0,0,1,854,120a48.79,48.79,0,0,1,22.71,5.34,58.08,58.08,0,0,1,17.7,14,64.41,64.41,0,0,1,11.44,19.57,63.73,63.73,0,0,1-12.11,64.73A58,58,0,0,1,876,237,49.29,49.29,0,0,1,854,242Zm-52.7-61a60.05,60.05,0,0,0,4,21.6,61.75,61.75,0,0,0,10.93,18.47,52,52,0,0,0,16.61,12.8A47.42,47.42,0,0,0,854,238.61a46.15,46.15,0,0,0,21.43-5A53.21,53.21,0,0,0,892,220.48,61.32,61.32,0,0,0,902.69,202a60.69,60.69,0,0,0-11.27-61.08,54.38,54.38,0,0,0-16.69-12.8,48.13,48.13,0,0,0-42.19.26,54.23,54.23,0,0,0-16.69,13.13A61.77,61.77,0,0,0,801.27,181Z" style="fill:#fff"/><path d="M934.79,241.15V120.85h77.44v3.39H938.18v53.54h63.2v3.39h-63.2v60Z" style="fill:#fff"/><path d="M1088.65,120.85h76.25l-3.56,16.77h-57.11l-7.62,35.92h47.78L1141,189.3h-47.78l-11,51.85h-19.15Z" style="fill:#fff"/><path d="M1204,120.85h16.77l19.32,120.3h-20l-4.74-32.7h-43.21l-18.47,32.7h-20Zm10.67,73.54-6.78-51.68-29.48,51.68Z" style="fill:#fff"/><path d="M1280.29,120.85h20.33L1322,194.39l52.7-73.54h20.16l-25.59,120.3H1350.1l18.47-86.58-46.77,65.57h-10.51l-19-65.57-18.47,86.58H1254.7Z" style="fill:#fff"/><path d="M1421.6,120.85h77.1l-3.56,16.77h-58l-7.29,34.23h50.16l-3.22,15.76h-50.32l-7.8,36.77h59.48l-3.56,16.77H1396Z" style="fill:#fff"/></g></g></svg>